<?xml version="1.0" encoding="utf-8"?>
<!-- Generator: Adobe Illustrator 16.0.3, SVG Export Plug-In . SVG Version: 6.00 Build 0)  -->
<!DOCTYPE svg PUBLIC "-//W3C//DTD SVG 1.1//EN" "http://www.w3.org/Graphics/SVG/1.1/DTD/svg11.dtd">
<svg version="1.1" id="レイヤー_1" xmlns="http://www.w3.org/2000/svg" xmlns:xlink="http://www.w3.org/1999/xlink" x="0px"
	 y="0px" width="160px" height="70px" viewBox="0 0 160 70" enable-background="new 0 0 160 70" xml:space="preserve">
<g>
	<g id="XMLID_2_">
		<g>
			<polygon fill="#82A800" points="68.788,29.874 67.528,30.334 67.73,29.625 			"/>
			<polygon fill="#FFB540" points="67.828,29.291 67.73,29.625 67.28,29.521 			"/>
			<polygon fill="#FFB540" points="67.73,29.625 67.528,30.334 50.905,36.428 67.28,29.521 			"/>
			<polygon fill="#FFB540" points="67.528,30.334 61.012,52.938 38.774,65.053 38.774,41.544 50.905,36.428 			"/>
			<polygon fill="#82A800" points="67.28,29.521 50.905,36.428 38.774,40.874 13.646,31.971 22.371,29.863 22.371,32.089 
				38.774,37.597 52.504,32.997 52.472,26.059 			"/>
			<polygon fill="#0016D4" points="52.472,26.059 52.504,32.997 38.774,37.597 38.774,25.902 45.182,24.355 			"/>
			<polygon fill="#FFD97F" points="52.385,7.293 52.472,26.059 45.182,24.355 38.774,25.902 38.774,9.537 38.819,9.53 38.907,9.544 
							"/>
			<polygon fill="#EC4500" points="52.385,7.293 38.819,9.53 22.371,6.791 35.829,4.948 			"/>
			<polygon fill="#5CFCFF" points="38.774,41.544 38.774,65.053 1.63,53.427 13.646,32.617 			"/>
			<polygon fill="#FF8256" points="38.774,25.902 38.774,37.597 22.371,32.089 22.371,29.863 			"/>
			<polygon fill="#00FF22" points="38.774,9.537 38.774,25.902 22.371,29.863 22.371,6.791 			"/>
		</g>
		<g>
			<polyline fill="none" stroke="#FFFFFF" stroke-width="1.745" stroke-linecap="round" stroke-linejoin="round" points="
				38.774,65.053 1.63,53.427 13.646,32.617 38.774,41.544 			"/>
			<polygon fill="none" stroke="#FFFFFF" stroke-width="1.745" stroke-linecap="round" stroke-linejoin="round" points="
				67.528,30.334 61.012,52.938 38.774,65.053 38.774,41.544 50.905,36.428 67.28,29.521 67.828,29.291 67.73,29.625 			"/>
			<polyline fill="none" stroke="#FFFFFF" stroke-width="1.745" stroke-linecap="round" stroke-linejoin="round" points="
				67.28,29.521 52.472,26.059 45.182,24.355 38.774,25.902 22.371,29.863 13.646,31.971 38.774,40.874 50.905,36.428 			"/>
			<polyline fill="none" stroke="#FFFFFF" stroke-width="1.745" stroke-linecap="round" stroke-linejoin="round" points="
				67.528,30.334 68.788,29.874 67.73,29.625 			"/>
			<polyline fill="none" stroke="#FFFFFF" stroke-width="1.745" stroke-linecap="round" stroke-linejoin="round" points="
				38.774,9.537 22.371,6.791 22.371,29.863 22.371,32.089 38.774,37.597 			"/>
			<polygon fill="none" stroke="#FFFFFF" stroke-width="1.745" stroke-linecap="round" stroke-linejoin="round" points="
				52.472,26.059 52.504,32.997 38.774,37.597 38.774,25.902 38.774,9.537 38.819,9.53 52.385,7.293 			"/>
			<polygon fill="none" stroke="#FFFFFF" stroke-width="1.745" stroke-linecap="round" stroke-linejoin="round" points="
				52.385,7.293 35.829,4.948 22.371,6.791 38.819,9.53 38.907,9.544 			"/>
		</g>
	</g>
	<g>
		<path fill="#534741" d="M87.426,47.286l-2.168,5.031c-0.162-0.954-0.334-1.725-0.51-2.312c-1.979-0.122-4.336-0.047-7.076,0.226
			l-0.103-2.987C82.396,47.137,85.681,47.149,87.426,47.286z M86.71,58.452c-1.595,0.3-2.992,0.448-4.191,0.448
			c-1.568,0-3.122-0.225-4.662-0.674c0.135-1.187,0.292-2.282,0.47-3.293c0.805,0.6,2.086,0.9,3.845,0.9
			c1.704,0,3.073-0.267,4.11-0.797L86.71,58.452z"/>
		<path fill="#534741" d="M103.5,54.056c-0.068,1.485-0.477,2.677-1.226,3.579c-0.969,1.186-2.632,2.072-4.99,2.657
			c2.358-2.086,3.538-4.008,3.538-5.767c0-0.231-0.021-0.464-0.062-0.694c-0.056-0.342-0.233-0.635-0.532-0.881
			c-0.342-0.245-0.764-0.368-1.268-0.368c-0.286,0-0.592,0.042-0.92,0.123c-0.777,0.231-1.889,0.9-3.333,2.005l-1.125-2.638
			c2.125-1.392,3.987-2.086,5.582-2.086c0.3,0,0.607,0.02,0.92,0.062c0.996,0.121,1.82,0.545,2.475,1.267
			C103.241,52.078,103.556,52.99,103.5,54.056z M101.804,46.142l-0.654,2.475c-2.428-0.423-4.009-0.729-4.745-0.922
			c0.165-0.613,0.361-1.513,0.593-2.697L101.804,46.142z"/>
		<path fill="#534741" d="M122.81,57.552c-0.384,0.668-1.108,1.224-2.179,1.666c-1.07,0.443-2.163,0.652-3.282,0.624
			c-1.513-0.054-2.61-0.267-3.292-0.634c-0.682-0.368-1.002-0.947-0.962-1.737l0.043-0.798c-0.723,0.015-1.313-0.179-1.771-0.573
			c-0.456-0.395-0.712-0.906-0.766-1.532c-0.069-0.765,0.14-1.416,0.623-1.953c0.484-0.539,1.148-0.851,1.993-0.931l0.164-1.411
			c-1.09,0.08-2.167,0.191-3.231,0.326l-0.101-3.088c1.676,0.055,2.766,0.068,3.271,0.041l-0.43-2.352l3.047-0.124l0.041,2.23
			l3.762-0.184l-0.103,2.904l-3.987-0.041l-0.246,2.086c0.697,0.366,1.045,1.002,1.045,1.901c0,0.939-0.342,1.677-1.024,2.208
			c-0.08,0.382-0.122,0.585-0.122,0.614c0,0.382,0.328,0.632,0.981,0.756c0.219,0.056,0.484,0.083,0.797,0.083
			c1.146,0,2.149-0.301,3.008-0.902l-0.021-2.146C120.941,55.665,121.854,56.653,122.81,57.552z M114.303,54.219
			c0.026-0.437-0.191-0.695-0.655-0.777c-0.449-0.067-0.783,0.076-1.001,0.43c-0.068,0.095-0.104,0.219-0.104,0.368
			c0,0.395,0.226,0.647,0.675,0.758c0.096,0.026,0.192,0.04,0.286,0.04C113.995,55.037,114.261,54.765,114.303,54.219z
			 M123.893,47.552c-0.026,1.145-0.061,2.006-0.102,2.577c-0.736,0.014-1.479,0.027-2.229,0.04c-0.04-1.076-0.055-1.949-0.04-2.617
			H123.893z"/>
		<path fill="#534741" d="M140.205,49.862c-2.411,0.56-3.714,1.842-3.906,3.845c-0.136,1.324,0.424,2.583,1.678,3.783l-3.251,1.473
			c-1.131-1.501-1.696-3.027-1.696-4.581c0-0.326,0.032-0.647,0.101-0.962c0.109-0.612,0.396-1.226,0.86-1.84
			c0.517-0.668,1.131-1.165,1.84-1.493c-2.182,0.166-4.465,0.294-6.851,0.39l-0.062-2.699c4.976-0.108,8.725-0.246,11.247-0.409
			L140.205,49.862z"/>
		<path fill="#534741" d="M157.815,54.28c0.095,1.253-0.164,2.289-0.776,3.108c-0.655,0.872-1.575,1.295-2.762,1.267
			c-0.723-0.027-1.37-0.319-1.943-0.878c-0.19-0.178-0.6-0.696-1.226-1.554c-0.423-0.559-0.791-0.854-1.104-0.881
			c-0.888-0.066-1.843,1.031-2.864,3.293l-2.208-1.001c2.222-5.632,3.864-9.476,4.929-11.535l2.801,1.125l-3.455,6.586
			c0.49-0.396,1.021-0.594,1.593-0.594c0.232,0,0.432,0.026,0.595,0.082c0.436,0.15,0.883,0.572,1.339,1.269
			c0.457,0.694,0.997,1.187,1.626,1.471c0.191,0.083,0.402,0.124,0.635,0.124c0.49,0,1.021-0.212,1.593-0.635
			C157.064,55.187,157.474,54.771,157.815,54.28z"/>
	</g>
	<g>
		<path fill="#534741" d="M86.073,14.082v26.791h-8.525V14.082H86.073z M102.431,14.082L94.872,26.23l7.517,14.643h-9.573
			l-6.489-14.798l7.349-11.993H102.431z"/>
		<path fill="#534741" d="M131.046,14.082l-12.493,28.322l-12.41-28.322h9.868l2.625,8.361l2.897-8.361H131.046z"/>
		<path fill="#534741" d="M145.028,27.429v7.067h-2.456v6.377h-8.525V23.837c0-3.297,0.962-5.859,2.887-7.685
			c1.926-1.824,4.63-2.738,8.117-2.738c3.358,0,5.844,0.828,7.454,2.484c1.609,1.655,2.414,4.209,2.414,7.664v17.311h-8.525v-16.78
			c0-1.048-0.134-1.774-0.399-2.18c-0.266-0.405-0.741-0.607-1.427-0.607c-1.33,0-1.995,0.927-1.995,2.788v3.335H145.028z"/>
	</g>
</g>
</svg>
