<?xml version="1.0" encoding="UTF-8" standalone="no"?>
<!-- Created with Inkscape (http://www.inkscape.org/) -->

<svg
   width="57.348625mm"
   height="13.087126mm"
   viewBox="0 0 57.348625 13.087126"
   version="1.1"
   id="svg1"
   xmlns="http://www.w3.org/2000/svg"
   xmlns:svg="http://www.w3.org/2000/svg">
  <defs
     id="defs1" />
  <path
     id="path42-2"
     style="font-size:10.5833px;line-height:1.25;letter-spacing:0px;word-spacing:0px;fill:#008080;stroke:none;stroke-width:50"
     d="m 38.216797,39.613281 c -0.284293,6.05e-4 -0.560157,0.179735 -0.675781,0.439453 l -0.267579,0.59375 h -1 a 0.28747954,0.28747954 0 0 0 -0.0957,0.01563 c -0.07235,0.02579 -0.09742,0.111327 -0.158203,0.158203 l -0.748047,-0.5625 c -0.305787,-0.229074 -0.790546,-0.165081 -1.027343,0.134766 l 0.0039,-0.0039 0.0332,-0.04102 -2.435547,0.205078 a 0.28747954,0.28747954 0 0 0 -0.002,0 c -0.3773,0.0331 -0.694162,0.397089 -0.675781,0.775391 l 0.09961,2.072266 c 0.01191,0.248683 0.158447,0.486534 0.375,0.609375 0.216553,0.12284 0.495283,0.127146 0.714844,0.0098 a 0.28747954,0.28747954 0 0 0 0.002,0 l 0.109375,-0.05859 c -0.08645,0.186866 -0.143809,0.357627 -0.265625,0.5625 h 0.002 c -0.107797,0.181245 -0.13396,0.408961 -0.06836,0.609375 0.01362,0.04162 0.06503,0.05532 0.08594,0.09375 l -0.05859,0.01953 c -0.337657,0.105898 -0.532695,0.483195 -0.480468,0.830078 L 29.753906,41.099609 C 29.647009,40.822066 29.359917,40.625075 29.0625,40.625 h -0.857422 a 0.28747954,0.28747954 0 0 0 -0.002,0 c -0.229698,7.88e-4 -0.454926,0.11436 -0.591797,0.298828 l -1.470703,1.970703 0.425781,-1.091797 c 0.08272,-0.211557 0.06131,-0.462119 -0.05664,-0.65625 -0.117953,-0.19413 -0.32881,-0.327509 -0.554688,-0.351562 L 24.75,40.662109 c -0.328982,-0.03501 -0.669356,0.178196 -0.779297,0.490235 L 22.511719,45.3125 c -0.173375,-0.563685 -0.373438,-1.221782 -0.451172,-1.435547 a 0.28747954,0.28747954 0 0 0 -0.0059,-0.01367 l -0.0059,-0.01563 c -0.0021,-0.0043 -0.0037,-0.0075 -0.0059,-0.01172 l -1.029297,-2.701171 -0.002,-0.002 C 20.902816,40.849437 20.604341,40.649025 20.300781,40.65625 l -1.011719,0.02344 c -0.01429,-0.0044 -0.02844,-0.01011 -0.04297,-0.01367 a 0.28747954,0.28747954 0 0 0 -0.08789,-0.0078 l -0.583984,0.04102 -0.986328,0.02344 A 0.28747954,0.28747954 0 0 0 17.472656,40.75 c -0.01651,0.0077 -0.03097,0.01846 -0.04687,0.02734 L 17.25,40.791016 c -0.239307,0.01759 -0.465264,0.159786 -0.585938,0.367187 l -1.167968,2.015625 v -1.775391 c 4.96e-4,-0.239211 -0.121659,-0.475198 -0.31836,-0.611328 -0.196701,-0.136129 -0.461847,-0.168725 -0.685546,-0.08398 L 10.728516,42.125 c -0.379692,0.143476 -0.582101,0.637276 -0.41211,1.005859 l 2.810547,6.132813 c 0.117057,0.2564 0.391972,0.432874 0.673828,0.433594 h 0.953125 c 0.389227,6.67e-4 0.742855,-0.352961 0.742188,-0.742188 v -2.021484 l 1.185547,2.355468 c 0.12291,0.24412 0.388794,0.408492 0.662109,0.408204 h 1.982422 c 0.27248,3.7e-4 0.538679,-0.163329 0.662109,-0.40625 0.12343,-0.242921 0.09845,-0.553577 -0.0625,-0.773438 l -2.753906,-3.777344 0.912109,-1.001953 3.302735,5.591797 c 0.129732,0.221384 0.382077,0.366434 0.638672,0.367188 h 0.515625 0.435546 3.240235 c 0.297219,-5.64e-4 0.584728,-0.199212 0.691406,-0.476563 l 0.002,-0.002 0.714844,-1.861328 h 1.978516 l 0.726562,1.865234 c 0.106898,0.277543 0.393989,0.474535 0.691406,0.47461 h 0.953125 l 0.0078,0.05664 c 0.02847,0.218819 0.159413,0.421971 0.347656,0.53711 0.188243,0.115139 0.430901,0.140728 0.638672,0.06641 0.644997,-0.228962 1.197713,-0.501418 1.708984,-0.933594 0.741321,0.518169 1.613265,0.851563 2.628907,0.851563 h 4.548828 c 0.313303,7.5e-5 0.613281,-0.220584 0.707031,-0.519532 l 0.248047,-0.783203 v -0.002 c 0.0695,-0.221026 0.02952,-0.475197 -0.107422,-0.662109 -0.117633,-0.160553 -0.307124,-0.251722 -0.503906,-0.279297 0.140826,-0.137767 0.232761,-0.323862 0.232422,-0.521485 v -0.662109 c 5.36e-4,-0.312886 -0.247047,-0.552756 -0.539063,-0.654297 0.0081,-0.0222 0.0294,-0.03759 0.03516,-0.06055 a 0.28747954,0.28747954 0 0 0 0.0078,-0.07031 v -0.66211 a 0.28747954,0.28747954 0 0 0 -0.0059,-0.05859 c -0.02782,-0.132896 -0.10019,-0.252974 -0.193359,-0.351563 0.01177,-0.02041 0.03911,-0.02735 0.04883,-0.04883 a 0.28747954,0.28747954 0 0 0 0.02539,-0.119141 V 44.15625 h 0.08594 c 0.221771,3.8e-4 0.408888,-0.125934 0.548828,-0.296875 0.159165,0.164471 0.365341,0.28365 0.59375,0.257812 l 0.01563,-0.002 v 0.25 a 0.28747954,0.28747954 0 0 0 0.0059,0.06055 c 0.02262,0.103768 0.08431,0.192825 0.148437,0.277344 -0.05641,0.07225 -0.116661,0.142443 -0.142578,0.230469 a 0.28747954,0.28747954 0 0 0 -0.01172,0.07422 l -0.02344,0.949219 a 0.28747954,0.28747954 0 0 0 0,0.0078 c -2.77e-4,0.09765 0.07012,0.173444 0.107422,0.263672 -0.08059,0.07793 -0.192107,0.12509 -0.230469,0.230468 a 0.28747954,0.28747954 0 0 0 -0.01758,0.09766 v 3.349609 c -6.67e-4,0.389227 0.352961,0.742855 0.742187,0.742187 h 0.703125 a 0.28747954,0.28747954 0 0 0 0.02539,0 c 0.245838,-0.02096 0.429829,-0.199519 0.548828,-0.414062 h 0.783203 c 0.07394,0.08119 0.12493,0.184902 0.226563,0.226562 a 0.28747954,0.28747954 0 0 0 0.109375,0.02148 h 0.703125 a 0.28747954,0.28747954 0 0 0 0.134765,-0.0332 c 0.02319,-0.01225 0.03295,-0.04001 0.05469,-0.05469 0.200346,0.156448 0.447179,0.251932 0.6875,0.164063 0.754088,-0.276497 1.469759,-0.689995 2.162109,-1.183594 0.653697,0.424464 1.497183,0.88535 2.560547,1.248047 0.221288,0.07584 0.478987,0.03944 0.669922,-0.0957 0.190935,-0.135142 0.310449,-0.365697 0.3125,-0.59961 l 0.01563,-1.990234 c 0.0025,-0.25653 -0.137779,-0.508071 -0.357422,-0.640625 -0.219643,-0.132554 -0.510529,-0.141305 -0.736328,-0.01953 -0.332665,0.179034 -0.556711,0.224998 -0.748047,0.226562 0.31057,-0.456425 0.60989,-0.931685 0.861328,-1.488281 0.02212,-0.0077 0.02355,-0.0043 0.05859,-0.02148 0.08433,-0.04145 0.185361,-0.134366 0.240234,-0.246094 0.160415,-0.326621 0.03648,-0.635612 -0.03125,-0.753906 -0.05902,-0.103079 -0.12295,-0.16736 -0.171875,-0.216797 0.212656,-0.107837 0.400691,-0.261551 0.513672,-0.464844 0.224382,-0.403739 0.220419,-0.803028 0.234375,-1.265625 0.0084,-0.250537 -0.119871,-0.501092 -0.328125,-0.640625 a 0.28747954,0.28747954 0 0 0 -0.002,-0.002 l -0.591797,-0.392578 c -0.169508,-0.113481 -0.38176,-0.12363 -0.580078,-0.07813 v -1.164063 c 6.67e-4,-0.389227 -0.35296,-0.742854 -0.742187,-0.742187 h -3.058594 c -0.316512,-5.43e-4 -0.559938,0.251971 -0.658203,0.548828 -0.0434,-0.356834 -0.343846,-0.674548 -0.707031,-0.673828 h -2.728516 c -0.389227,-6.67e-4 -0.742855,0.35296 -0.742188,0.742187 v 0.353516 l -0.691406,-0.06641 c -0.239095,-0.023 -0.480498,0.08386 -0.634765,0.267578 -0.09687,-0.298862 -0.34214,-0.55328 -0.660157,-0.552735 h -1.316406 c 0.02714,-0.09864 0.05388,-0.202574 0.0332,-0.328125 -0.05541,-0.336414 -0.285823,-0.520123 -0.46289,-0.603515 -0.136831,-0.06444 -0.262882,-0.08483 -0.34961,-0.0957 h -0.002 c -0.03001,-0.0039 -0.05958,-0.0057 -0.08984,-0.0059 a 0.28747954,0.28747954 0 0 0 -0.002,0 z m -3.107422,3.566406 0.253906,0.375 -0.4375,0.08398 z m 14.333984,0.691407 c 0.02563,0.116948 0.06814,0.22252 0.123047,0.332031 h -0.328125 c 0.08058,-0.101475 0.142292,-0.21622 0.205078,-0.332031 z m -20.810547,0.814453 0.126954,0.341797 h -0.253907 z m 18.38086,0.08789 0.0098,0.06445 -0.162109,0.05859 0.002,-0.117187 z m -11.076172,0.22461 0.365234,0.148437 -0.361328,0.138672 z m 13.820312,1.363281 -0.103515,0.189453 -0.111328,-0.166015 z m -17.939453,0.05859 c 0.199559,0.460726 0.545202,0.890464 0.994141,1.300781 -0.138098,0.03382 -0.254759,0.065 -0.435547,0.142578 z m 15.646485,0.113281 0.11914,0.03516 c 0.18332,0.429249 0.378513,0.754592 0.574219,1.060547 -0.20553,0.09969 -0.438956,0.184482 -0.683594,0.261719 v -1.333984 c 1.5e-5,-0.0088 -0.0094,-0.01472 -0.0098,-0.02344 z"
     transform="translate(4.0185159,-37.574888)" />
  <path
     id="path42-2-4"
     style="font-size:10.5833px;line-height:1.25;letter-spacing:0px;word-spacing:0px;fill:#ffff00;stroke:none;stroke-width:50"
     d="m 37.353516,28.103516 a 0.28892718,0.28892718 0 0 0 -0.263672,0.171875 l -0.386719,0.863281 h -1.292969 a 0.28892718,0.28892718 0 0 0 -0.289062,0.289062 v 0.660157 a 0.28892718,0.28892718 0 0 0 0.289062,0.289062 h 1.191406 v 0.125 h -1.935546 a 0.28892718,0.28892718 0 0 0 -0.246094,0.246094 l 0.427734,-0.871094 c 0.04767,-0.02241 0.09614,-0.02973 0.146485,-0.08008 0.04771,-0.04771 0.104979,-0.134154 0.105468,-0.244141 4.9e-4,-0.109986 -0.05529,-0.199811 -0.103515,-0.248047 a 0.28892718,0.28892718 0 0 0 -0.03125,-0.02539 l -0.828125,-0.621094 a 0.28892718,0.28892718 0 0 0 -0.400391,0.05078 l -0.08594,0.109375 -2.63086,0.22461 a 0.28892718,0.28892718 0 0 0 -0.263672,0.300781 l 0.09961,2.072266 a 0.28892718,0.28892718 0 0 0 0.425781,0.240234 l 1.351562,-0.724609 c -0.259448,0.607756 -0.483378,1.156703 -0.902343,1.861328 a 0.28892718,0.28892718 0 0 0 0.136718,0.414062 l 0.50586,0.212891 -0.935547,0.294922 a 0.28892718,0.28892718 0 0 0 -0.191406,0.355468 c 0.17013,0.595463 0.703193,1.203636 1.496093,1.816407 -0.09687,0.05914 -0.188145,0.155755 -0.308593,0.1875 -0.220451,0.0581 -0.51694,0.09713 -0.853516,0.273437 a 0.28892718,0.28892718 0 0 0 -0.152344,0.292969 l 0.140625,1.091797 a 0.28892718,0.28892718 0 0 0 0.382813,0.234375 c 0.744179,-0.264067 1.297717,-0.496593 1.808594,-1.021485 0.718155,0.599298 1.621308,0.914063 2.683593,0.914063 h 4.548828 a 0.28892718,0.28892718 0 0 0 0.275391,-0.201172 l 0.248047,-0.785156 a 0.28892718,0.28892718 0 0 0 -0.275391,-0.376953 h -2.935547 a 0.28892718,0.28892718 0 0 0 0.04102,-0.04102 v -0.621094 h 2.480469 a 0.28892718,0.28892718 0 0 0 0.289062,-0.289062 v -0.660156 a 0.28892718,0.28892718 0 0 0 -0.289062,-0.289063 h -2.480469 v -0.208984 h 1.984375 a 0.28892718,0.28892718 0 0 0 0.289063,-0.289063 V 33.4375 a 0.28892718,0.28892718 0 0 0 -0.289063,-0.289063 h -1.984375 v -0.002 h 1.859375 a 0.28892718,0.28892718 0 0 0 0.289063,-0.289062 v -1.115235 h 0.539062 a 0.28892718,0.28892718 0 0 0 0.289063,-0.289062 v -0.662109 a 0.28892718,0.28892718 0 0 0 -0.289063,-0.289063 h -0.539062 v -1.074219 a 0.28892718,0.28892718 0 0 0 -0.289063,-0.289062 h -1.859375 v -0.371094 c 0.01302,-0.01333 0.02848,-0.0217 0.04102,-0.03711 0.04924,-0.06052 0.11313,-0.161347 0.08984,-0.302735 -0.02329,-0.141387 -0.135194,-0.229953 -0.210937,-0.265625 -0.07574,-0.03567 -0.142439,-0.0476 -0.214844,-0.05664 a 0.28892718,0.28892718 0 0 0 -0.03516,-0.002 z m 5.580078,0.291015 a 0.28892718,0.28892718 0 0 0 -0.289063,0.289063 v 0.785156 a 0.28892718,0.28892718 0 0 0 0.06445,0.07422 L 41.457031,29.421875 A 0.28892718,0.28892718 0 0 0 41.160156,29.8125 l 0.66211,1.710937 a 0.28892718,0.28892718 0 0 0 0.300781,0.183594 l 0.521484,-0.05859 v 0.75586 a 0.28892718,0.28892718 0 0 0 0.269531,0.289062 l 1.195313,0.08203 h -1.175781 a 0.28892718,0.28892718 0 0 0 -0.289063,0.28125 l -0.02344,0.949218 a 0.28892718,0.28892718 0 0 0 0.30664,0.296875 l 2.751953,-0.164062 a 0.28892718,0.28892718 0 0 0 0.271485,-0.289063 v -0.785156 a 0.28892718,0.28892718 0 0 0 -0.22461,-0.224609 0.28892718,0.28892718 0 0 0 0.201172,-0.242188 l 0.002,-0.11914 0.388672,0.285156 a 0.28892718,0.28892718 0 0 0 0.08203,0.01953 0.28892718,0.28892718 0 0 0 -0.199219,0.199219 v 0.785156 a 0.28892718,0.28892718 0 0 0 0.208984,0.277344 l 0.601563,0.173828 c 0.28392,0.734403 0.565963,1.237862 0.880859,1.677734 -0.503932,0.322198 -1.069784,0.49092 -1.734375,0.664063 V 34.59375 a 0.28892718,0.28892718 0 0 0 -0.289062,-0.289063 h -3.09961 a 0.28892718,0.28892718 0 0 0 -0.289062,0.289063 v 3.349609 a 0.28892718,0.28892718 0 0 0 0.289062,0.289063 h 0.703125 a 0.28892718,0.28892718 0 0 0 0.289063,-0.289063 v -0.125 h 1.15625 a 0.28892718,0.28892718 0 0 0 0.248047,0.248047 h 0.703125 a 0.28892718,0.28892718 0 0 0 0.267578,-0.267578 l 0.08594,0.212891 a 0.28892718,0.28892718 0 0 0 0.367188,0.162109 c 0.798101,-0.292635 1.563554,-0.735595 2.304687,-1.294922 0.639111,0.441677 1.567949,0.960538 2.720703,1.353516 a 0.28892718,0.28892718 0 0 0 0.382813,-0.271485 l 0.01563,-1.990234 a 0.28892718,0.28892718 0 0 0 -0.425781,-0.255859 c -0.80231,0.431787 -1.32554,0.302341 -1.677735,0.121093 0.468936,-0.595071 0.885678,-1.284962 1.236328,-2.09375 0.07416,-0.01547 0.172579,-0.03635 0.232422,-0.158203 0.07034,-0.143215 0.01628,-0.263635 -0.01953,-0.326172 -0.03581,-0.06254 -0.07252,-0.105726 -0.117188,-0.15039 a 0.28892718,0.28892718 0 0 0 -0.0332,-0.02734 L 50.589844,32.625 a 0.28892718,0.28892718 0 0 0 -0.376953,0.02734 l -0.03906,0.04102 h -3.251953 c 0.379197,-0.12173 0.737869,-0.293989 1.007812,-0.570312 0.36086,-0.369388 0.571995,-0.894144 0.492188,-1.484375 l -0.0332,-0.240235 0.582031,-0.03516 v 1.171875 c 0,0.285247 0.08347,0.553095 0.277344,0.736328 0.193875,0.183233 0.462272,0.25586 0.755859,0.25586 h 0.867188 c 0.172889,0 0.329394,-0.01616 0.476562,-0.07813 0.147169,-0.06197 0.274879,-0.179706 0.351563,-0.31836 0.153367,-0.277307 0.16373,-0.599841 0.177734,-1.0625 A 0.28892718,0.28892718 0 0 0 51.748047,30.820312 L 51.15625,30.427734 a 0.28892718,0.28892718 0 0 0 -0.449219,0.240235 c 0,0.241668 -0.03227,0.409244 -0.06055,0.476562 -0.02828,0.06732 0.01556,0.01953 0.01953,0.01953 h -0.289063 c 0.0011,7.94e-4 -0.002,0.0071 -0.002,-0.04297 v -2.314453 a 0.28892718,0.28892718 0 0 0 -0.289063,-0.289063 h -3.058593 a 0.28892718,0.28892718 0 0 0 -0.289063,0.289063 v 1.695312 c 0,0.404857 -0.07671,0.713422 -0.208984,0.939453 -0.130122,0.222356 -0.315404,0.374335 -0.585938,0.478516 l 0.0078,-0.294922 a 0.28892718,0.28892718 0 0 0 -0.289063,-0.296875 h -0.142578 l 0.753906,-0.08398 a 0.28892718,0.28892718 0 0 0 0.257813,-0.28711 v -0.785156 a 0.28892718,0.28892718 0 0 0 -0.261719,-0.287109 l -0.365234,-0.03516 a 0.28892718,0.28892718 0 0 0 0.02344,-0.04883 l 0.02344,-1.111328 a 0.28892718,0.28892718 0 0 0 -0.289063,-0.294922 z m -15.591797,0.720703 a 0.28892718,0.28892718 0 0 0 -0.232422,0.117188 l -3.470703,4.65039 1.642578,-4.208984 A 0.28892718,0.28892718 0 0 0 25.042969,29.28125 l -1.205078,-0.132813 a 0.28892718,0.28892718 0 0 0 -0.304688,0.191407 l -1.691406,4.824218 c -0.08268,0.232539 -0.144738,0.443031 -0.208985,0.654297 -0.177583,-0.615685 -0.737683,-2.411937 -0.861328,-2.751953 a 0.28892718,0.28892718 0 0 0 -0.002,-0.0039 l -1.042969,-2.730469 a 0.28892718,0.28892718 0 0 0 -0.277343,-0.185547 l -1.050782,0.02539 a 0.28892718,0.28892718 0 0 0 -0.07227,-0.02539 l -0.59375,0.04102 -0.998047,0.02539 a 0.28892718,0.28892718 0 0 0 -0.08203,0.04883 l -0.232422,0.01758 a 0.28892718,0.28892718 0 0 0 -0.228516,0.144531 l -1.232422,2.126953 c -0.211335,0.231725 -0.422924,0.462968 -0.634765,0.695313 -0.04869,0.0534 -0.09612,0.106671 -0.144531,0.160156 v -2.970703 a 0.28892718,0.28892718 0 0 0 -0.390625,-0.269531 l -3.763672,1.421875 a 0.28892718,0.28892718 0 0 0 -0.1601566,0.390625 l 2.8105466,6.134765 A 0.28892718,0.28892718 0 0 0 12.9375,37.28125 h 0.953125 a 0.28892718,0.28892718 0 0 0 0.289063,-0.289063 v -2.800781 l 0.394531,-0.345703 1.648437,3.275391 a 0.28892718,0.28892718 0 0 0 0.257813,0.160156 h 1.982422 a 0.28892718,0.28892718 0 0 0 0.234375,-0.458984 l -2.972657,-4.076172 1.576172,-1.732422 3.613281,6.125 a 0.28892718,0.28892718 0 0 0 0.248047,0.142578 h 0.515625 0.435547 3.238281 a 0.28892718,0.28892718 0 0 0 0.269532,-0.185547 l 0.830078,-2.152344 h 2.599609 l 0.837891,2.154297 a 0.28892718,0.28892718 0 0 0 0.269531,0.183594 h 0.982422 a 0.28892718,0.28892718 0 0 0 0.269531,-0.392578 L 28.46875,29.300781 a 0.28892718,0.28892718 0 0 0 -0.269531,-0.185547 z m 11.003906,1.322266 0.333984,0.06445 h -0.333984 z m -3.96875,0.398437 v 0.617188 a 0.28892718,0.28892718 0 0 0 0.207031,0.207031 h -0.611328 z m -6.611328,0.560547 c 0.02983,0.08838 0.06046,0.179405 0.07813,0.226563 l 0.701172,1.894531 h -1.558594 l 0.710938,-1.894531 a 0.28892718,0.28892718 0 0 0 0.002,-0.0059 c 0.02046,-0.05798 0.04486,-0.14951 0.06641,-0.220703 z m 7.148437,0.345703 h 1.6875 v 0.166016 h -1.191406 a 0.28892718,0.28892718 0 0 0 -0.289062,0.289063 v -0.248047 a 0.28892718,0.28892718 0 0 0 -0.207032,-0.207032 z m 3.431641,0 h 0.59375 l -0.0625,0.08594 -0.53125,0.05078 z m -3.224609,0.826172 v 0.289063 a 0.28892718,0.28892718 0 0 0 0.289062,0.289062 h 1.191406 v 0.002 h -1.15039 A 0.28892718,0.28892718 0 0 0 35.162109,33.4375 v 0.660156 a 0.28892718,0.28892718 0 0 0 0.289063,0.289063 h 1.15039 v 0.208984 h -1.6875 a 0.28892718,0.28892718 0 0 0 -0.0078,0.0078 c 0.134532,-0.61777 0.214844,-1.287467 0.214844,-2.035157 z m -1.833985,0.455078 h 0.427735 v 0.08203 c 0,0.392769 -0.06332,0.794584 -0.15625,1.201172 -0.137669,-0.283068 -0.324172,-0.606887 -0.394532,-0.832032 a 0.28892718,0.28892718 0 0 0 -0.105468,-0.125 z m 15.089844,1.22461 0.746094,0.0039 c -0.09107,0.230377 -0.204033,0.476523 -0.306641,0.695313 -0.170253,-0.21428 -0.317898,-0.457339 -0.439453,-0.699219 z M 34.625,35.451172 v 0.09375 a 0.28892718,0.28892718 0 0 0 0.289062,0.289062 h 1.798829 l 0.33789,0.66211 h -0.27539 c -1.059796,0 -1.780408,-0.258001 -2.265625,-0.697266 0.04745,-0.10729 0.07364,-0.234831 0.115234,-0.347656 z m 9.185547,0.55664 h 1.017578 l 0.03125,0.572266 h -1.080078 z"
     transform="translate(4.8818964,-25.612451)" />
  <path
     d="M 23.345598,11.379228 H 21.363872 L 19.546194,7.7703347 18.773613,8.4476657 V 11.379228 H 17.821115 L 15.009917,5.2448927 18.773613,3.8227571 v 3.7253266 c 0.211665,-0.239892 0.426858,-0.479781 0.64558,-0.719667 0.218722,-0.239892 0.437444,-0.479781 0.656165,-0.719667 l 1.248827,-2.1537006 1.904997,-0.132292 -2.995075,3.2914006 z M 29.894009,3.9550491 26.99683,11.379228 h -0.952497 l -4.418532,-7.4903249 2.714621,-0.06615 1.042452,2.7304926 c 0.112889,0.310437 0.86607,2.719907 0.936626,2.995075 0.07761,0.268111 0.144637,0.5256383 0.201081,0.7725813 0.04939,-0.246943 0.112886,-0.5080003 0.1905,-0.7831683 0.07761,-0.275162 0.172861,-0.571493 0.285749,-0.888995 L 28.690158,3.8227531 Z M 35.040133,11.379228 34.12997,9.0403217 h -2.995075 l -0.899581,2.3389063 h -3.675059 l 5.66472,-7.5882209 h 0.857247 l 2.942157,7.5882209 z M 33.84422,8.1936637 32.997555,5.9076617 c -0.02116,-0.05648 -0.05644,-0.158778 -0.105833,-0.306905 -0.04939,-0.148167 -0.09878,-0.299864 -0.148166,-0.455089 -0.04233,-0.1622766 -0.07761,-0.2857486 -0.105833,-0.3704156 -0.05645,0.218719 -0.11642,0.4339126 -0.179915,0.6455796 -0.05645,0.204611 -0.105837,0.366887 -0.148166,0.48683 l -0.857247,2.286002 z m 12.27795,2.9788663 -0.248049,0.785474 h -4.547509 c -1.102427,0 -1.998149,-0.330728 -2.687165,-0.992183 -0.523654,0.661455 -1.047307,0.813039 -1.901688,1.11621 L 36.5972,10.990634 c 0.578775,-0.303178 1.036281,-0.135059 1.504812,-0.686268 -0.986674,-0.6835033 -1.52962,-1.3477153 -1.694983,-1.9264913 l 1.364255,-0.429942 c 0.137804,0.440964 0.385851,0.964613 0.744139,1.570948 0.248046,-0.689015 0.372069,-1.364247 0.372069,-2.025695 v -0.372077 h -0.868161 l -0.372069,0.537436 -0.785479,-0.330738 c 0.606334,-1.019746 0.760673,-1.642613 1.256765,-2.6623526 l -2.091856,1.1244786 -0.09882,-2.0729676 2.752911,-0.23386 0.165363,-0.206709 0.82682,0.620116 c 0.05512,0.05513 -4e-6,0.110252 -0.165363,0.165359 l -1.116207,2.2737626 h 1.322911 v 0.620106 c 0,1.350477 -0.220485,2.466685 -0.661455,3.3486263 0.551213,0.578776 1.419375,0.868164 2.604483,0.868164 z M 41.773094,5.1780827 V 4.4752781 h -1.480007 v -0.661446 h 1.480007 l 0.463021,-1.033532 h 0.661456 c 0.220484,0.02753 0.234264,0.110216 0.04134,0.248048 v 0.785484 h 2.149736 v 1.3642506 h 0.826812 v 0.661445 h -0.826812 v 1.4056 h -2.149736 v 0.578776 h 2.273751 v 0.661455 h -2.273751 v 0.785484 h 2.769848 v 0.661456 H 42.938911 V 10.841802 H 42.236114 L 41.773093,9.9322987 h -1.976099 v -0.661456 h 1.976099 v -0.785484 h -1.438668 v -0.661455 h 1.438666 v -0.578776 h -1.480007 v -0.661456 h 1.480007 v -0.744144 h -2.224144 v -0.661445 z m 2.612755,0.661445 h -1.446937 v 0.744144 l 0.979216,-0.09355 z m -0.233861,-1.1303896 -1.213076,-0.23386 v 0.7028046 h 1.446937 z m 7.220491,3.4454926 v -0.785474 h 3.803371 l 0.124015,-0.124029 0.620121,0.454757 c 0.137807,0.137806 0.110242,0.192925 -0.0827,0.165358 -0.413408,0.992186 -0.909498,1.81901 -1.488272,2.4804733 0.38585,0.303164 1.185106,0.587116 2.257454,0.01 l -0.01418,1.990696 c -1.212672,-0.413404 -2.215717,-0.980911 -2.822049,-1.421887 -0.771698,0.606335 -1.570956,1.061085 -2.397776,1.36425 L 50.959052,11.26943 c 0.826823,-0.220478 1.57096,-0.358682 2.232413,-0.882332 C 52.778051,9.8634417 52.462362,9.3297747 52.104082,8.3651487 Z m 0.537436,-4.9609136 h 3.059225 v 2.3150926 c 0,0.220479 0.09646,0.330718 0.289387,0.330718 h 0.289386 c 0.22049,0 0.330735,-0.261821 0.330735,-0.785464 l 0.592951,0.393786 c -0.02753,0.909501 -0.110616,1.177162 -0.716975,1.177162 h -0.86816 c -0.496098,0 -0.744146,-0.234265 -0.744146,-0.702795 V 4.4422121 l -1.199134,0.07417 0.07417,0.5485346 c 0.13664,1.01055 -0.688608,1.68412 -1.644876,1.852804 l -0.454749,-0.33405 c 0.661457,-0.248045 0.992185,-0.813037 0.992185,-1.6949766 z M 50.752368,12.164713 H 50.04957 v -0.248049 h -1.694982 v 0.413407 H 47.65179 V 8.9814547 h 3.100578 z m 0.372063,-7.6067459 v 0.7854736 l -4.150635,0.463021 -0.661459,-1.7115156 z m -0.578774,-1.488279 -0.02339,1.11289 -2.705119,-0.327406 v -0.785484 z m 0,2.9352186 -0.02339,0.972562 -2.705119,-0.187088 v -0.785474 z m 0,1.446929 v 0.785475 l -2.751891,0.163702 0.02339,-0.949177 z m -0.562233,2.6540953 h -1.56269 l -0.06615,1.149278 h 1.694982 z m 3.786831,-0.2149823 c 0.320878,-0.585944 0.429944,-0.931544 0.677986,-1.53788 l -1.652219,-0.01135 c 0.220483,0.661462 0.560819,1.053145 0.974233,1.54923 z"
     id="path42-2-2"
     style="font-size:10.5833px;line-height:1.25;letter-spacing:0px;word-spacing:0px;fill:#008080;stroke:none;stroke-width:50"
     aria-label="KVA建設" />
  <path
     id="rect44"
     style="fill:#008080;stroke-width:42.8746;paint-order:fill markers stroke"
     d="M 9.5970074,1.3567231e-7 H 13.993591 V 12.534942 l -2.80633,-0.09354 z" />
  <path
     id="path46"
     style="fill:#008080;stroke-width:39.7025;paint-order:fill markers stroke"
     d="m 4.7801634,1.5317891 h 4.317878 L 12.037873,12.476477 9.2598424,12.394807 Z" />
  <path
     id="path46-1"
     style="fill:#ffff00;stroke-width:9.42464;paint-order:fill markers stroke"
     d="m 10.386509,1.4626131 h 1.366435 l 0.0043,1.948855 -0.872226,-0.01454 z" />
  <path
     id="path46-1-4"
     style="fill:#ffff00;stroke-width:9.42464;paint-order:fill markers stroke"
     d="m 12.43703,1.3964681 h 1.035705 l 0.0043,1.948855 -0.872226,-0.01454 z" />
  <path
     id="path46-1-8"
     style="fill:#ffff00;stroke-width:8.24087;paint-order:fill markers stroke"
     d="m 11.047967,3.9761541 h 1.044735 l 0.0033,1.9488546 -0.666878,-0.01454 z" />
  <path
     id="path46-1-4-7"
     style="fill:#ffff00;stroke-width:8.24087;paint-order:fill markers stroke"
     d="m 12.615732,3.9100091 h 0.79187 l 0.0033,1.9488546 -0.666878,-0.01454 z" />
  <path
     id="path46-9"
     style="fill:#008080;stroke-width:36.2897;paint-order:fill markers stroke"
     d="M 2.9445889e-7,3.4611411 H 4.3965844 l 6.7351916,8.9802569 -2.8565886,-0.06701 z" />
</svg>
